<?xml version="1.0" encoding="iso-8859-1"?>
<!-- Generator: Adobe Illustrator 19.0.0, SVG Export Plug-In . SVG Version: 6.00 Build 0)  -->
<svg version="1.1" id="Capa_1" xmlns="http://www.w3.org/2000/svg" xmlns:xlink="http://www.w3.org/1999/xlink" x="0px" y="0px"
	 viewBox="0 0 491.102 491.102" style="enable-background:new 0 0 491.102 491.102;" xml:space="preserve">
<g>
	
		<linearGradient id="SVGID_1_" gradientUnits="userSpaceOnUse" x1="-0.7598" y1="609.1956" x2="-0.7598" y2="516.6055" gradientTransform="matrix(5.2245 0 0 -5.2245 250.0422 3186.6543)">
		<stop  offset="0" style="stop-color:#00EFD1"/>
		<stop  offset="1" style="stop-color:#00ACEA"/>
	</linearGradient>
	<path style="fill:url(#SVGID_1_);" d="M245.811,110.759c30.302,0,55.38-25.078,55.38-55.38S277.158,0,245.811,0
		s-54.857,25.078-54.857,55.38S215.509,110.759,245.811,110.759z M245.811,31.347c13.061,0,24.033,10.971,24.033,24.033
		s-10.971,24.033-24.033,24.033s-24.033-10.971-24.033-24.033S232.75,31.347,245.811,31.347z"/>
	
		<linearGradient id="SVGID_2_" gradientUnits="userSpaceOnUse" x1="-0.8596" y1="609.1956" x2="-0.8596" y2="516.6055" gradientTransform="matrix(5.2245 0 0 -5.2245 250.0422 3186.6543)">
		<stop  offset="0" style="stop-color:#00EFD1"/>
		<stop  offset="1" style="stop-color:#00ACEA"/>
	</linearGradient>
	<path style="fill:url(#SVGID_2_);" d="M310.072,353.176v-52.767h32.392c8.882,0,15.673-6.792,15.673-15.673V200.62
		c0-45.975-37.616-83.592-83.592-83.592h-57.469c-45.976,0-83.592,37.616-83.592,83.592v84.114c0,8.882,6.792,15.673,15.673,15.673
		h32.392v52.245c-47.02,4.18-150.465,19.853-150.465,67.918c0,48.588,111.804,70.531,214.727,70.531
		c96.131,0,176.065-17.763,202.71-44.931c9.404-9.927,11.494-19.331,11.494-25.6C460.538,372.506,356.57,357.355,310.072,353.176z
		 M164.832,269.061V200.62c0-28.735,23.51-52.245,52.245-52.245h57.469c28.735,0,52.245,23.51,52.245,52.245v68.441h-16.718v-83.592
		h-31.347v236.147h-17.241V316.604h-31.347v105.012h-17.241V185.469H181.55v83.592H164.832z M245.811,459.755
		c-117.551,0-181.812-27.69-183.38-39.184c0.522-7.314,36.571-28.212,119.118-36.571v53.29c0,8.882,6.792,15.673,15.673,15.673
		h48.588h48.588c8.882,0,15.673-6.792,15.673-15.673v-52.767c82.024,7.837,117.551,28.212,119.118,36.049
		C427.624,432.588,362.84,459.755,245.811,459.755z"/>
</g>
<g>
</g>
<g>
</g>
<g>
</g>
<g>
</g>
<g>
</g>
<g>
</g>
<g>
</g>
<g>
</g>
<g>
</g>
<g>
</g>
<g>
</g>
<g>
</g>
<g>
</g>
<g>
</g>
<g>
</g>
</svg>
